<mxfile host="65bd71144e">
    <diagram id="42-3Qwi0CxuxkSYnmTf2" name="Page-1">
        <mxGraphModel dx="2038" dy="3384" grid="1" gridSize="10" guides="1" tooltips="1" connect="1" arrows="1" fold="1" page="1" pageScale="1" pageWidth="1200" pageHeight="1920" math="0" shadow="0">
            <root>
                <mxCell id="0"/>
                <mxCell id="1" parent="0"/>
                <mxCell id="106" style="edgeStyle=none;html=1;exitX=0.5;exitY=0;exitDx=0;exitDy=0;entryX=0;entryY=0.5;entryDx=0;entryDy=0;fontSize=15;fillColor=#1ba1e2;strokeColor=#006EAF;" parent="1" source="16" target="29" edge="1">
                    <mxGeometry relative="1" as="geometry">
                        <Array as="points">
                            <mxPoint x="80" y="-1040"/>
                        </Array>
                    </mxGeometry>
                </mxCell>
                <mxCell id="115" value="&lt;font style=&quot;font-size: 12px;&quot;&gt;Admin Detail&lt;/font&gt;" style="edgeLabel;html=1;align=center;verticalAlign=middle;resizable=0;points=[];fontSize=15;" parent="106" vertex="1" connectable="0">
                    <mxGeometry x="0.2297" relative="1" as="geometry">
                        <mxPoint as="offset"/>
                    </mxGeometry>
                </mxCell>
                <mxCell id="107" style="edgeStyle=none;html=1;exitX=0.75;exitY=0;exitDx=0;exitDy=0;entryX=0;entryY=0;entryDx=0;entryDy=0;fontSize=15;fillColor=#1ba1e2;strokeColor=#006EAF;" parent="1" source="16" target="92" edge="1">
                    <mxGeometry relative="1" as="geometry">
                        <Array as="points">
                            <mxPoint x="120" y="-960"/>
                        </Array>
                    </mxGeometry>
                </mxCell>
                <mxCell id="116" value="&lt;font style=&quot;font-size: 13px;&quot;&gt;Announcement detail&lt;/font&gt;" style="edgeLabel;html=1;align=center;verticalAlign=middle;resizable=0;points=[];fontSize=15;" parent="107" vertex="1" connectable="0">
                    <mxGeometry x="-0.1187" y="1" relative="1" as="geometry">
                        <mxPoint x="24" y="1" as="offset"/>
                    </mxGeometry>
                </mxCell>
                <mxCell id="108" style="edgeStyle=none;html=1;exitX=1;exitY=0.5;exitDx=0;exitDy=0;entryX=0;entryY=0.5;entryDx=0;entryDy=0;fontSize=15;fillColor=#1ba1e2;strokeColor=#006EAF;" parent="1" source="16" target="95" edge="1">
                    <mxGeometry relative="1" as="geometry">
                        <Array as="points">
                            <mxPoint x="180" y="-900"/>
                            <mxPoint x="180" y="-800"/>
                        </Array>
                    </mxGeometry>
                </mxCell>
                <mxCell id="117" value="Property category" style="edgeLabel;html=1;align=center;verticalAlign=middle;resizable=0;points=[];fontSize=12;" parent="108" vertex="1" connectable="0">
                    <mxGeometry x="0.3681" y="1" relative="1" as="geometry">
                        <mxPoint x="-33" y="1" as="offset"/>
                    </mxGeometry>
                </mxCell>
                <mxCell id="109" style="edgeStyle=none;html=1;exitX=1;exitY=1;exitDx=0;exitDy=0;entryX=0;entryY=0.25;entryDx=0;entryDy=0;fontSize=15;fillColor=#1ba1e2;strokeColor=#006EAF;" parent="1" source="16" target="102" edge="1">
                    <mxGeometry relative="1" as="geometry">
                        <Array as="points">
                            <mxPoint x="160" y="-700"/>
                        </Array>
                    </mxGeometry>
                </mxCell>
                <mxCell id="118" value="User detail" style="edgeLabel;html=1;align=center;verticalAlign=middle;resizable=0;points=[];fontSize=12;" parent="109" vertex="1" connectable="0">
                    <mxGeometry x="0.4598" y="1" relative="1" as="geometry">
                        <mxPoint as="offset"/>
                    </mxGeometry>
                </mxCell>
                <mxCell id="110" style="edgeStyle=none;html=1;exitX=0.75;exitY=1;exitDx=0;exitDy=0;entryX=0;entryY=0.25;entryDx=0;entryDy=0;fontSize=15;fillColor=#1ba1e2;strokeColor=#006EAF;" parent="1" source="16" target="104" edge="1">
                    <mxGeometry relative="1" as="geometry">
                        <Array as="points">
                            <mxPoint x="120" y="-580"/>
                        </Array>
                    </mxGeometry>
                </mxCell>
                <mxCell id="119" value="Landlord detail" style="edgeLabel;html=1;align=center;verticalAlign=middle;resizable=0;points=[];fontSize=12;" parent="110" vertex="1" connectable="0">
                    <mxGeometry x="0.5696" y="-1" relative="1" as="geometry">
                        <mxPoint as="offset"/>
                    </mxGeometry>
                </mxCell>
                <mxCell id="112" style="edgeStyle=none;html=1;exitX=0.5;exitY=1;exitDx=0;exitDy=0;entryX=0;entryY=0.25;entryDx=0;entryDy=0;fontSize=15;fillColor=#1ba1e2;strokeColor=#006EAF;startArrow=classic;startFill=1;endArrow=none;endFill=0;" parent="1" source="16" target="25" edge="1">
                    <mxGeometry relative="1" as="geometry">
                        <Array as="points">
                            <mxPoint x="80" y="-460"/>
                        </Array>
                    </mxGeometry>
                </mxCell>
                <mxCell id="120" value="Property detail" style="edgeLabel;html=1;align=center;verticalAlign=middle;resizable=0;points=[];fontSize=12;" parent="112" vertex="1" connectable="0">
                    <mxGeometry x="0.5252" relative="1" as="geometry">
                        <mxPoint x="-23" as="offset"/>
                    </mxGeometry>
                </mxCell>
                <mxCell id="113" style="edgeStyle=none;html=1;exitX=0.25;exitY=1;exitDx=0;exitDy=0;entryX=0;entryY=0.5;entryDx=0;entryDy=0;fontSize=15;startArrow=none;startFill=0;endArrow=classic;endFill=1;fillColor=#1ba1e2;strokeColor=#006EAF;" parent="1" source="16" target="25" edge="1">
                    <mxGeometry relative="1" as="geometry">
                        <Array as="points">
                            <mxPoint x="40" y="-840"/>
                            <mxPoint x="60" y="-840"/>
                            <mxPoint x="60" y="-660"/>
                            <mxPoint x="60" y="-440"/>
                        </Array>
                    </mxGeometry>
                </mxCell>
                <mxCell id="121" value="Status detail" style="edgeLabel;html=1;align=center;verticalAlign=middle;resizable=0;points=[];fontSize=12;" parent="113" vertex="1" connectable="0">
                    <mxGeometry x="0.7112" y="-1" relative="1" as="geometry">
                        <mxPoint x="-14" y="-1" as="offset"/>
                    </mxGeometry>
                </mxCell>
                <mxCell id="149" style="edgeStyle=none;html=1;exitX=0.25;exitY=1;exitDx=0;exitDy=0;entryX=0;entryY=0.5;entryDx=0;entryDy=0;fontSize=12;startArrow=none;startFill=0;endArrow=classic;endFill=1;fillColor=#1ba1e2;strokeColor=#006EAF;" parent="1" source="16" target="144" edge="1">
                    <mxGeometry relative="1" as="geometry">
                        <Array as="points">
                            <mxPoint x="40" y="-120"/>
                            <mxPoint x="360" y="-120"/>
                            <mxPoint x="360" y="560"/>
                        </Array>
                    </mxGeometry>
                </mxCell>
                <mxCell id="150" value="Admin detail" style="edgeLabel;html=1;align=center;verticalAlign=middle;resizable=0;points=[];fontSize=12;" parent="149" vertex="1" connectable="0">
                    <mxGeometry x="0.0308" y="2" relative="1" as="geometry">
                        <mxPoint as="offset"/>
                    </mxGeometry>
                </mxCell>
                <mxCell id="187" style="edgeStyle=none;html=1;exitX=1;exitY=0;exitDx=0;exitDy=0;entryX=0;entryY=0;entryDx=0;entryDy=0;fontSize=12;startArrow=classic;startFill=1;endArrow=none;endFill=0;fillColor=#1ba1e2;strokeColor=#006EAF;" parent="1" source="16" target="135" edge="1">
                    <mxGeometry relative="1" as="geometry">
                        <Array as="points">
                            <mxPoint x="320" y="-920"/>
                            <mxPoint x="320" y="280"/>
                        </Array>
                    </mxGeometry>
                </mxCell>
                <mxCell id="16" value="&lt;font style=&quot;font-size: 15px;&quot;&gt;Admin&lt;/font&gt;" style="rounded=0;whiteSpace=wrap;html=1;fillColor=#1ba1e2;fontColor=#ffffff;strokeColor=#006EAF;" parent="1" vertex="1">
                    <mxGeometry y="-920" width="160" height="40" as="geometry"/>
                </mxCell>
                <mxCell id="111" style="edgeStyle=none;html=1;exitX=0.5;exitY=0;exitDx=0;exitDy=0;fontSize=15;fillColor=#60a917;strokeColor=#2D7600;" parent="1" source="17" target="25" edge="1">
                    <mxGeometry relative="1" as="geometry">
                        <Array as="points"/>
                    </mxGeometry>
                </mxCell>
                <mxCell id="122" value="Property detail" style="edgeLabel;html=1;align=center;verticalAlign=middle;resizable=0;points=[];fontSize=12;" parent="111" vertex="1" connectable="0">
                    <mxGeometry x="-0.303" y="-1" relative="1" as="geometry">
                        <mxPoint x="-1" y="-12" as="offset"/>
                    </mxGeometry>
                </mxCell>
                <mxCell id="17" value="7.0" style="swimlane;startSize=23;rounded=1;fontSize=15;" parent="1" vertex="1">
                    <mxGeometry x="400" y="40" width="200" height="80" as="geometry"/>
                </mxCell>
                <mxCell id="18" value="&lt;font style=&quot;font-size: 15px;&quot;&gt;Add/edit/delete Property&lt;/font&gt;" style="text;html=1;align=center;verticalAlign=middle;resizable=0;points=[];autosize=1;strokeColor=none;fillColor=none;rotation=0;fontSize=15;" parent="17" vertex="1">
                    <mxGeometry x="10" y="35" width="180" height="30" as="geometry"/>
                </mxCell>
                <mxCell id="114" style="edgeStyle=none;html=1;exitX=0;exitY=0.75;exitDx=0;exitDy=0;entryX=0.5;entryY=0;entryDx=0;entryDy=0;fontSize=15;startArrow=none;startFill=0;endArrow=classic;endFill=1;fillColor=#1ba1e2;strokeColor=#006EAF;" parent="1" source="25" target="124" edge="1">
                    <mxGeometry relative="1" as="geometry">
                        <Array as="points">
                            <mxPoint x="80" y="-420"/>
                        </Array>
                    </mxGeometry>
                </mxCell>
                <mxCell id="123" value="Status detail" style="edgeLabel;html=1;align=center;verticalAlign=middle;resizable=0;points=[];fontSize=12;" parent="114" vertex="1" connectable="0">
                    <mxGeometry x="-0.2727" y="1" relative="1" as="geometry">
                        <mxPoint x="79" y="-37" as="offset"/>
                    </mxGeometry>
                </mxCell>
                <mxCell id="25" value="6.0" style="swimlane;startSize=23;rounded=1;fontSize=15;" parent="1" vertex="1">
                    <mxGeometry x="400" y="-480" width="200" height="80" as="geometry"/>
                </mxCell>
                <mxCell id="26" value="&lt;font style=&quot;font-size: 15px;&quot;&gt;Approve/reject/delete &lt;br&gt;Property&lt;/font&gt;" style="text;html=1;align=center;verticalAlign=middle;resizable=0;points=[];autosize=1;strokeColor=none;fillColor=none;rotation=0;fontSize=15;" parent="25" vertex="1">
                    <mxGeometry x="15" y="30" width="170" height="50" as="geometry"/>
                </mxCell>
                <mxCell id="29" value="1.0" style="swimlane;startSize=23;rounded=1;fontSize=15;" parent="1" vertex="1">
                    <mxGeometry x="400" y="-1080" width="200" height="80" as="geometry"/>
                </mxCell>
                <mxCell id="30" value="&lt;font style=&quot;font-size: 15px;&quot;&gt;Edit admin profile&lt;/font&gt;" style="text;html=1;align=center;verticalAlign=middle;resizable=0;points=[];autosize=1;strokeColor=none;fillColor=none;rotation=0;fontSize=15;" parent="29" vertex="1">
                    <mxGeometry x="30" y="40" width="140" height="30" as="geometry"/>
                </mxCell>
                <mxCell id="92" value="2.0" style="swimlane;startSize=23;rounded=1;fontSize=15;" parent="1" vertex="1">
                    <mxGeometry x="400" y="-960" width="200" height="80" as="geometry"/>
                </mxCell>
                <mxCell id="93" value="&lt;font style=&quot;font-size: 15px;&quot;&gt;Add/edit/delete&lt;br&gt;Announcement&lt;/font&gt;" style="text;html=1;align=center;verticalAlign=middle;resizable=0;points=[];autosize=1;strokeColor=none;fillColor=none;rotation=0;fontSize=15;" parent="92" vertex="1">
                    <mxGeometry x="40" y="30" width="120" height="50" as="geometry"/>
                </mxCell>
                <mxCell id="95" value="3.0" style="swimlane;startSize=23;rounded=1;fontSize=15;" parent="1" vertex="1">
                    <mxGeometry x="400" y="-840" width="200" height="80" as="geometry"/>
                </mxCell>
                <mxCell id="96" value="Add new property &lt;br&gt;category" style="text;html=1;align=center;verticalAlign=middle;resizable=0;points=[];autosize=1;strokeColor=none;fillColor=none;rotation=0;fontSize=15;" parent="95" vertex="1">
                    <mxGeometry x="30" y="30" width="140" height="50" as="geometry"/>
                </mxCell>
                <mxCell id="102" value="4.0" style="swimlane;startSize=23;rounded=1;fontSize=15;" parent="1" vertex="1">
                    <mxGeometry x="400" y="-720" width="200" height="80" as="geometry"/>
                </mxCell>
                <mxCell id="103" value="Search/delete User" style="text;html=1;align=center;verticalAlign=middle;resizable=0;points=[];autosize=1;strokeColor=none;fillColor=none;rotation=0;fontSize=15;" parent="102" vertex="1">
                    <mxGeometry x="25" y="40" width="150" height="30" as="geometry"/>
                </mxCell>
                <mxCell id="104" value="5.0" style="swimlane;startSize=23;rounded=1;fontSize=15;" parent="1" vertex="1">
                    <mxGeometry x="400" y="-600" width="200" height="80" as="geometry"/>
                </mxCell>
                <mxCell id="105" value="Search/delete&lt;br&gt;Landlord" style="text;html=1;align=center;verticalAlign=middle;resizable=0;points=[];autosize=1;strokeColor=none;fillColor=none;rotation=0;fontSize=15;" parent="104" vertex="1">
                    <mxGeometry x="40" y="30" width="120" height="50" as="geometry"/>
                </mxCell>
                <mxCell id="125" style="edgeStyle=none;html=1;exitX=0.75;exitY=0;exitDx=0;exitDy=0;entryX=0;entryY=0.5;entryDx=0;entryDy=0;fontSize=12;startArrow=none;startFill=0;endArrow=classic;endFill=1;fillColor=#60a917;strokeColor=#2D7600;" parent="1" source="124" target="17" edge="1">
                    <mxGeometry relative="1" as="geometry">
                        <Array as="points">
                            <mxPoint x="120" y="80"/>
                        </Array>
                    </mxGeometry>
                </mxCell>
                <mxCell id="126" value="Property detail" style="edgeLabel;html=1;align=center;verticalAlign=middle;resizable=0;points=[];fontSize=12;" parent="125" vertex="1" connectable="0">
                    <mxGeometry x="0.3834" y="-1" relative="1" as="geometry">
                        <mxPoint x="-54" y="-1" as="offset"/>
                    </mxGeometry>
                </mxCell>
                <mxCell id="133" style="edgeStyle=none;html=1;exitX=1;exitY=0;exitDx=0;exitDy=0;entryX=0;entryY=0.5;entryDx=0;entryDy=0;fontSize=12;startArrow=none;startFill=0;endArrow=classic;endFill=1;fillColor=#60a917;strokeColor=#2D7600;" parent="1" source="124" target="131" edge="1">
                    <mxGeometry relative="1" as="geometry">
                        <Array as="points">
                            <mxPoint x="160" y="200"/>
                        </Array>
                    </mxGeometry>
                </mxCell>
                <mxCell id="134" value="Profile detail" style="edgeLabel;html=1;align=center;verticalAlign=middle;resizable=0;points=[];fontSize=12;" parent="133" vertex="1" connectable="0">
                    <mxGeometry x="-0.108" y="2" relative="1" as="geometry">
                        <mxPoint x="-25" y="2" as="offset"/>
                    </mxGeometry>
                </mxCell>
                <mxCell id="141" style="edgeStyle=none;html=1;exitX=1;exitY=0.75;exitDx=0;exitDy=0;entryX=0;entryY=0.25;entryDx=0;entryDy=0;fontSize=12;startArrow=none;startFill=0;endArrow=classic;endFill=1;fillColor=#60a917;strokeColor=#2D7600;" parent="1" source="124" target="139" edge="1">
                    <mxGeometry relative="1" as="geometry">
                        <Array as="points">
                            <mxPoint x="180" y="270"/>
                            <mxPoint x="180" y="420"/>
                        </Array>
                    </mxGeometry>
                </mxCell>
                <mxCell id="142" value="Status detail" style="edgeLabel;html=1;align=center;verticalAlign=middle;resizable=0;points=[];fontSize=12;" parent="141" vertex="1" connectable="0">
                    <mxGeometry x="0.2544" relative="1" as="geometry">
                        <mxPoint x="-24" as="offset"/>
                    </mxGeometry>
                </mxCell>
                <mxCell id="148" style="edgeStyle=none;html=1;exitX=1;exitY=1;exitDx=0;exitDy=0;entryX=0;entryY=0.25;entryDx=0;entryDy=0;fontSize=12;startArrow=none;startFill=0;endArrow=classic;endFill=1;fillColor=#60a917;strokeColor=#2D7600;" parent="1" source="124" target="144" edge="1">
                    <mxGeometry relative="1" as="geometry">
                        <Array as="points">
                            <mxPoint x="160" y="540"/>
                        </Array>
                    </mxGeometry>
                </mxCell>
                <mxCell id="156" style="edgeStyle=none;html=1;exitX=0.25;exitY=1;exitDx=0;exitDy=0;entryX=0;entryY=0.75;entryDx=0;entryDy=0;fontSize=12;startArrow=none;startFill=0;endArrow=classic;endFill=1;fillColor=#60a917;strokeColor=#2D7600;" parent="1" source="124" target="144" edge="1">
                    <mxGeometry relative="1" as="geometry">
                        <Array as="points">
                            <mxPoint x="40" y="580"/>
                        </Array>
                    </mxGeometry>
                </mxCell>
                <mxCell id="157" value="Landlord detail" style="edgeLabel;html=1;align=center;verticalAlign=middle;resizable=0;points=[];fontSize=12;" parent="156" vertex="1" connectable="0">
                    <mxGeometry x="0.4413" y="-1" relative="1" as="geometry">
                        <mxPoint x="-65" y="-6" as="offset"/>
                    </mxGeometry>
                </mxCell>
                <mxCell id="158" style="edgeStyle=none;html=1;exitX=0.25;exitY=1;exitDx=0;exitDy=0;entryX=0;entryY=0.25;entryDx=0;entryDy=0;fontSize=12;startArrow=none;startFill=0;endArrow=classic;endFill=1;fillColor=#60a917;strokeColor=#2D7600;" parent="1" source="124" target="146" edge="1">
                    <mxGeometry relative="1" as="geometry">
                        <Array as="points">
                            <mxPoint x="40" y="660"/>
                        </Array>
                    </mxGeometry>
                </mxCell>
                <mxCell id="159" value="Landlord detail" style="edgeLabel;html=1;align=center;verticalAlign=middle;resizable=0;points=[];fontSize=12;" parent="158" vertex="1" connectable="0">
                    <mxGeometry x="0.5051" y="1" relative="1" as="geometry">
                        <mxPoint x="-37" as="offset"/>
                    </mxGeometry>
                </mxCell>
                <mxCell id="166" style="edgeStyle=none;html=1;exitX=0.5;exitY=1;exitDx=0;exitDy=0;entryX=0;entryY=0.25;entryDx=0;entryDy=0;fontSize=12;startArrow=classic;startFill=1;endArrow=none;endFill=0;fillColor=#60a917;strokeColor=#2D7600;" parent="1" source="124" target="160" edge="1">
                    <mxGeometry relative="1" as="geometry">
                        <Array as="points">
                            <mxPoint x="80" y="520"/>
                            <mxPoint x="240" y="520"/>
                            <mxPoint x="240" y="780"/>
                        </Array>
                    </mxGeometry>
                </mxCell>
                <mxCell id="193" style="edgeStyle=none;html=1;exitX=1;exitY=0.5;exitDx=0;exitDy=0;entryX=0;entryY=0.25;entryDx=0;entryDy=0;fontSize=12;startArrow=none;startFill=0;endArrow=classic;endFill=1;fillColor=#60a917;strokeColor=#2D7600;" parent="1" source="124" target="177" edge="1">
                    <mxGeometry relative="1" as="geometry">
                        <Array as="points">
                            <mxPoint x="190" y="260"/>
                            <mxPoint x="190" y="480"/>
                            <mxPoint x="280" y="480"/>
                            <mxPoint x="280" y="1460"/>
                        </Array>
                    </mxGeometry>
                </mxCell>
                <mxCell id="199" style="edgeStyle=none;html=1;exitX=0.75;exitY=1;exitDx=0;exitDy=0;entryX=0;entryY=0.5;entryDx=0;entryDy=0;fontSize=12;startArrow=none;startFill=0;endArrow=classic;endFill=1;fillColor=#60a917;strokeColor=#2D7600;" parent="1" source="124" target="196" edge="1">
                    <mxGeometry relative="1" as="geometry">
                        <Array as="points">
                            <mxPoint x="120" y="360"/>
                            <mxPoint x="320" y="360"/>
                            <mxPoint x="320" y="1720"/>
                        </Array>
                    </mxGeometry>
                </mxCell>
                <mxCell id="124" value="&lt;font style=&quot;font-size: 15px;&quot;&gt;Landlord&lt;/font&gt;" style="rounded=0;whiteSpace=wrap;html=1;fillColor=#60a917;fontColor=#ffffff;strokeColor=#2D7600;" parent="1" vertex="1">
                    <mxGeometry y="240" width="160" height="40" as="geometry"/>
                </mxCell>
                <mxCell id="131" value="8.0" style="swimlane;startSize=23;rounded=1;fontSize=15;" parent="1" vertex="1">
                    <mxGeometry x="400" y="160" width="200" height="80" as="geometry"/>
                </mxCell>
                <mxCell id="132" value="&lt;font style=&quot;font-size: 15px;&quot;&gt;Edit landlord profile&lt;br&gt;&lt;/font&gt;" style="text;html=1;align=center;verticalAlign=middle;resizable=0;points=[];autosize=1;strokeColor=none;fillColor=none;rotation=0;fontSize=15;" parent="131" vertex="1">
                    <mxGeometry x="25" y="40" width="150" height="30" as="geometry"/>
                </mxCell>
                <mxCell id="137" style="edgeStyle=none;html=1;exitX=0;exitY=0.25;exitDx=0;exitDy=0;entryX=1;entryY=0.25;entryDx=0;entryDy=0;fontSize=12;startArrow=none;startFill=0;endArrow=classic;endFill=1;fillColor=#60a917;strokeColor=#2D7600;" parent="1" source="135" target="124" edge="1">
                    <mxGeometry relative="1" as="geometry">
                        <Array as="points">
                            <mxPoint x="200" y="300"/>
                            <mxPoint x="200" y="250"/>
                        </Array>
                    </mxGeometry>
                </mxCell>
                <mxCell id="138" value="Property record" style="edgeLabel;html=1;align=center;verticalAlign=middle;resizable=0;points=[];fontSize=12;" parent="137" vertex="1" connectable="0">
                    <mxGeometry x="-0.6184" relative="1" as="geometry">
                        <mxPoint x="-95" as="offset"/>
                    </mxGeometry>
                </mxCell>
                <mxCell id="135" value="9.0" style="swimlane;startSize=23;rounded=1;fontSize=15;" parent="1" vertex="1">
                    <mxGeometry x="400" y="280" width="200" height="80" as="geometry"/>
                </mxCell>
                <mxCell id="136" value="&lt;font style=&quot;font-size: 15px;&quot;&gt;View property&lt;br&gt;&lt;/font&gt;" style="text;html=1;align=center;verticalAlign=middle;resizable=0;points=[];autosize=1;strokeColor=none;fillColor=none;rotation=0;fontSize=15;" parent="135" vertex="1">
                    <mxGeometry x="45" y="40" width="110" height="30" as="geometry"/>
                </mxCell>
                <mxCell id="139" value="10.0" style="swimlane;startSize=23;rounded=1;fontSize=15;" parent="1" vertex="1">
                    <mxGeometry x="400" y="400" width="200" height="80" as="geometry"/>
                </mxCell>
                <mxCell id="140" value="&lt;font style=&quot;font-size: 15px;&quot;&gt;Approve/reject Booking&lt;br&gt;&lt;/font&gt;" style="text;html=1;align=center;verticalAlign=middle;resizable=0;points=[];autosize=1;strokeColor=none;fillColor=none;rotation=0;fontSize=15;" parent="139" vertex="1">
                    <mxGeometry x="10" y="40" width="180" height="30" as="geometry"/>
                </mxCell>
                <mxCell id="151" style="edgeStyle=none;html=1;exitX=0.25;exitY=0;exitDx=0;exitDy=0;entryX=0;entryY=1;entryDx=0;entryDy=0;fontSize=12;startArrow=none;startFill=0;endArrow=classic;endFill=1;fillColor=#d80073;strokeColor=#A50040;" parent="1" source="143" target="144" edge="1">
                    <mxGeometry relative="1" as="geometry">
                        <Array as="points">
                            <mxPoint x="40" y="680"/>
                            <mxPoint x="10" y="680"/>
                            <mxPoint x="10" y="600"/>
                        </Array>
                    </mxGeometry>
                </mxCell>
                <mxCell id="152" value="User detail" style="edgeLabel;html=1;align=center;verticalAlign=middle;resizable=0;points=[];fontSize=12;" parent="151" vertex="1" connectable="0">
                    <mxGeometry x="0.2872" relative="1" as="geometry">
                        <mxPoint x="-47" as="offset"/>
                    </mxGeometry>
                </mxCell>
                <mxCell id="154" style="edgeStyle=none;html=1;exitX=0.25;exitY=0;exitDx=0;exitDy=0;entryX=0;entryY=0.75;entryDx=0;entryDy=0;fontSize=12;startArrow=none;startFill=0;endArrow=classic;endFill=1;fillColor=#d80073;strokeColor=#A50040;" parent="1" source="143" target="146" edge="1">
                    <mxGeometry relative="1" as="geometry">
                        <Array as="points">
                            <mxPoint x="40" y="700"/>
                        </Array>
                    </mxGeometry>
                </mxCell>
                <mxCell id="155" value="User detail" style="edgeLabel;html=1;align=center;verticalAlign=middle;resizable=0;points=[];fontSize=12;" parent="154" vertex="1" connectable="0">
                    <mxGeometry x="0.0124" y="-1" relative="1" as="geometry">
                        <mxPoint x="-33" as="offset"/>
                    </mxGeometry>
                </mxCell>
                <mxCell id="165" style="edgeStyle=none;html=1;exitX=1;exitY=0.25;exitDx=0;exitDy=0;entryX=0;entryY=0.25;entryDx=0;entryDy=0;fontSize=12;startArrow=classic;startFill=1;endArrow=none;endFill=0;fillColor=#d80073;strokeColor=#A50040;" parent="1" source="143" target="162" edge="1">
                    <mxGeometry relative="1" as="geometry">
                        <Array as="points">
                            <mxPoint x="190" y="730"/>
                            <mxPoint x="190" y="900"/>
                        </Array>
                    </mxGeometry>
                </mxCell>
                <mxCell id="168" style="edgeStyle=none;html=1;exitX=0.5;exitY=0;exitDx=0;exitDy=0;fontSize=12;startArrow=classic;startFill=1;endArrow=none;endFill=0;entryX=0;entryY=0.75;entryDx=0;entryDy=0;fillColor=#d80073;strokeColor=#A50040;" parent="1" source="143" target="135" edge="1">
                    <mxGeometry relative="1" as="geometry">
                        <mxPoint x="320" y="350" as="targetPoint"/>
                        <Array as="points">
                            <mxPoint x="80" y="550"/>
                            <mxPoint x="120" y="550"/>
                            <mxPoint x="120" y="400"/>
                            <mxPoint x="120" y="340"/>
                        </Array>
                    </mxGeometry>
                </mxCell>
                <mxCell id="190" style="edgeStyle=none;html=1;exitX=1;exitY=0.5;exitDx=0;exitDy=0;fontSize=12;startArrow=none;startFill=0;endArrow=classic;endFill=1;fillColor=#d80073;strokeColor=#A50040;" parent="1" source="143" edge="1">
                    <mxGeometry relative="1" as="geometry">
                        <mxPoint x="400" y="1030" as="targetPoint"/>
                        <Array as="points">
                            <mxPoint x="180" y="740"/>
                            <mxPoint x="180" y="1030"/>
                        </Array>
                    </mxGeometry>
                </mxCell>
                <mxCell id="191" style="edgeStyle=none;html=1;exitX=1;exitY=0.75;exitDx=0;exitDy=0;entryX=0;entryY=0.25;entryDx=0;entryDy=0;fontSize=12;startArrow=none;startFill=0;endArrow=classic;endFill=1;fillColor=#d80073;strokeColor=#A50040;" parent="1" source="143" target="173" edge="1">
                    <mxGeometry relative="1" as="geometry">
                        <Array as="points">
                            <mxPoint x="170" y="750"/>
                            <mxPoint x="170" y="1220"/>
                        </Array>
                    </mxGeometry>
                </mxCell>
                <mxCell id="192" style="edgeStyle=none;html=1;exitX=1;exitY=1;exitDx=0;exitDy=0;entryX=0;entryY=0.25;entryDx=0;entryDy=0;fontSize=12;startArrow=none;startFill=0;endArrow=classic;endFill=1;fillColor=#d80073;strokeColor=#A50040;" parent="1" source="143" target="175" edge="1">
                    <mxGeometry relative="1" as="geometry">
                        <Array as="points">
                            <mxPoint x="160" y="1340"/>
                        </Array>
                    </mxGeometry>
                </mxCell>
                <mxCell id="194" style="edgeStyle=none;html=1;exitX=0.75;exitY=1;exitDx=0;exitDy=0;fontSize=12;startArrow=none;startFill=0;endArrow=classic;endFill=1;entryX=0;entryY=0.5;entryDx=0;entryDy=0;fillColor=#d80073;strokeColor=#A50040;" parent="1" source="143" target="180" edge="1">
                    <mxGeometry relative="1" as="geometry">
                        <mxPoint x="400" y="1610" as="targetPoint"/>
                        <Array as="points">
                            <mxPoint x="120" y="1600"/>
                        </Array>
                    </mxGeometry>
                </mxCell>
                <mxCell id="195" style="edgeStyle=none;html=1;exitX=0.75;exitY=1;exitDx=0;exitDy=0;entryX=0;entryY=0.5;entryDx=0;entryDy=0;fontSize=12;startArrow=none;startFill=0;endArrow=classic;endFill=1;fillColor=#d80073;strokeColor=#A50040;" parent="1" source="143" target="177" edge="1">
                    <mxGeometry relative="1" as="geometry">
                        <Array as="points">
                            <mxPoint x="120" y="800"/>
                            <mxPoint x="140" y="800"/>
                            <mxPoint x="140" y="1480"/>
                        </Array>
                    </mxGeometry>
                </mxCell>
                <mxCell id="198" style="edgeStyle=none;html=1;exitX=0.5;exitY=1;exitDx=0;exitDy=0;entryX=0;entryY=0.75;entryDx=0;entryDy=0;fontSize=12;startArrow=classic;startFill=1;endArrow=none;endFill=0;fillColor=#d80073;strokeColor=#A50040;" parent="1" source="143" target="196" edge="1">
                    <mxGeometry relative="1" as="geometry">
                        <Array as="points">
                            <mxPoint x="80" y="1740"/>
                        </Array>
                    </mxGeometry>
                </mxCell>
                <mxCell id="202" style="edgeStyle=none;html=1;exitX=0.25;exitY=1;exitDx=0;exitDy=0;entryX=0;entryY=0.25;entryDx=0;entryDy=0;fontSize=12;startArrow=none;startFill=0;endArrow=classic;endFill=1;fillColor=#d80073;strokeColor=#A50040;" parent="1" source="143" target="200" edge="1">
                    <mxGeometry relative="1" as="geometry">
                        <Array as="points">
                            <mxPoint x="40" y="1820"/>
                        </Array>
                    </mxGeometry>
                </mxCell>
                <mxCell id="143" value="&lt;font style=&quot;font-size: 15px;&quot;&gt;User&lt;/font&gt;" style="rounded=0;whiteSpace=wrap;html=1;fillColor=#d80073;fontColor=#ffffff;strokeColor=#A50040;" parent="1" vertex="1">
                    <mxGeometry y="720" width="160" height="40" as="geometry"/>
                </mxCell>
                <mxCell id="144" value="11.0" style="swimlane;startSize=23;rounded=1;fontSize=15;" parent="1" vertex="1">
                    <mxGeometry x="400" y="520" width="200" height="80" as="geometry"/>
                </mxCell>
                <mxCell id="145" value="&lt;font style=&quot;font-size: 15px;&quot;&gt;Login&lt;br&gt;&lt;/font&gt;" style="text;html=1;align=center;verticalAlign=middle;resizable=0;points=[];autosize=1;strokeColor=none;fillColor=none;rotation=0;fontSize=15;" parent="144" vertex="1">
                    <mxGeometry x="70" y="40" width="60" height="30" as="geometry"/>
                </mxCell>
                <mxCell id="146" value="12.0" style="swimlane;startSize=23;rounded=1;fontSize=15;" parent="1" vertex="1">
                    <mxGeometry x="400" y="640" width="200" height="80" as="geometry"/>
                </mxCell>
                <mxCell id="147" value="&lt;font style=&quot;font-size: 15px;&quot;&gt;Register&lt;br&gt;&lt;/font&gt;" style="text;html=1;align=center;verticalAlign=middle;resizable=0;points=[];autosize=1;strokeColor=none;fillColor=none;rotation=0;fontSize=15;" parent="146" vertex="1">
                    <mxGeometry x="60" y="40" width="80" height="30" as="geometry"/>
                </mxCell>
                <mxCell id="164" style="edgeStyle=none;html=1;entryX=1;entryY=0;entryDx=0;entryDy=0;fontSize=12;startArrow=none;startFill=0;endArrow=classic;endFill=1;fillColor=#d80073;strokeColor=#A50040;" parent="1" source="160" target="143" edge="1">
                    <mxGeometry relative="1" as="geometry">
                        <Array as="points">
                            <mxPoint x="200" y="800"/>
                            <mxPoint x="200" y="720"/>
                        </Array>
                    </mxGeometry>
                </mxCell>
                <mxCell id="189" style="edgeStyle=none;html=1;exitX=0;exitY=0;exitDx=0;exitDy=0;entryX=1;entryY=0.75;entryDx=0;entryDy=0;fontSize=12;startArrow=none;startFill=0;endArrow=classic;endFill=1;fillColor=#1ba1e2;strokeColor=#006EAF;" parent="1" source="160" target="16" edge="1">
                    <mxGeometry relative="1" as="geometry">
                        <Array as="points">
                            <mxPoint x="370" y="760"/>
                            <mxPoint x="380" y="-890"/>
                        </Array>
                    </mxGeometry>
                </mxCell>
                <mxCell id="160" value="13.0" style="swimlane;startSize=23;rounded=1;fontSize=15;" parent="1" vertex="1">
                    <mxGeometry x="400" y="760" width="200" height="80" as="geometry"/>
                </mxCell>
                <mxCell id="161" value="&lt;font style=&quot;font-size: 15px;&quot;&gt;View other user&lt;br&gt;&lt;/font&gt;" style="text;html=1;align=center;verticalAlign=middle;resizable=0;points=[];autosize=1;strokeColor=none;fillColor=none;rotation=0;fontSize=15;" parent="160" vertex="1">
                    <mxGeometry x="35" y="40" width="130" height="30" as="geometry"/>
                </mxCell>
                <mxCell id="188" style="edgeStyle=none;html=1;exitX=0;exitY=0;exitDx=0;exitDy=0;entryX=1;entryY=0.25;entryDx=0;entryDy=0;fontSize=12;startArrow=none;startFill=0;endArrow=classic;endFill=1;fillColor=#1ba1e2;strokeColor=#006EAF;" parent="1" source="162" target="16" edge="1">
                    <mxGeometry relative="1" as="geometry">
                        <Array as="points">
                            <mxPoint x="380" y="880"/>
                            <mxPoint x="390" y="-910"/>
                        </Array>
                    </mxGeometry>
                </mxCell>
                <mxCell id="162" value="14.0" style="swimlane;startSize=23;rounded=1;fontSize=15;" parent="1" vertex="1">
                    <mxGeometry x="400" y="880" width="200" height="80" as="geometry"/>
                </mxCell>
                <mxCell id="163" value="&lt;font style=&quot;font-size: 15px;&quot;&gt;View landlord&lt;br&gt;&lt;/font&gt;" style="text;html=1;align=center;verticalAlign=middle;resizable=0;points=[];autosize=1;strokeColor=none;fillColor=none;rotation=0;fontSize=15;" parent="162" vertex="1">
                    <mxGeometry x="45" y="40" width="110" height="30" as="geometry"/>
                </mxCell>
                <mxCell id="171" value="15.0" style="swimlane;startSize=23;rounded=1;fontSize=15;" parent="1" vertex="1">
                    <mxGeometry x="400" y="1000" width="200" height="80" as="geometry"/>
                </mxCell>
                <mxCell id="172" value="&lt;font style=&quot;font-size: 15px;&quot;&gt;Make Booking&lt;br&gt;&lt;/font&gt;" style="text;html=1;align=center;verticalAlign=middle;resizable=0;points=[];autosize=1;strokeColor=none;fillColor=none;rotation=0;fontSize=15;" parent="171" vertex="1">
                    <mxGeometry x="40" y="40" width="120" height="30" as="geometry"/>
                </mxCell>
                <mxCell id="173" value="16.0" style="swimlane;startSize=23;rounded=1;fontSize=15;" parent="1" vertex="1">
                    <mxGeometry x="400" y="1200" width="200" height="80" as="geometry"/>
                </mxCell>
                <mxCell id="174" value="&lt;font style=&quot;font-size: 15px;&quot;&gt;Add whistlist&lt;br&gt;&lt;/font&gt;" style="text;html=1;align=center;verticalAlign=middle;resizable=0;points=[];autosize=1;strokeColor=none;fillColor=none;rotation=0;fontSize=15;" parent="173" vertex="1">
                    <mxGeometry x="45" y="40" width="110" height="30" as="geometry"/>
                </mxCell>
                <mxCell id="175" value="17.0" style="swimlane;startSize=23;rounded=1;fontSize=15;" parent="1" vertex="1">
                    <mxGeometry x="400" y="1320" width="200" height="80" as="geometry"/>
                </mxCell>
                <mxCell id="176" value="&lt;font style=&quot;font-size: 15px;&quot;&gt;Search/filter property&lt;br&gt;&lt;/font&gt;" style="text;html=1;align=center;verticalAlign=middle;resizable=0;points=[];autosize=1;strokeColor=none;fillColor=none;rotation=0;fontSize=15;" parent="175" vertex="1">
                    <mxGeometry x="20" y="40" width="160" height="30" as="geometry"/>
                </mxCell>
                <mxCell id="177" value="18.0" style="swimlane;startSize=23;rounded=1;fontSize=15;" parent="1" vertex="1">
                    <mxGeometry x="400" y="1440" width="200" height="80" as="geometry"/>
                </mxCell>
                <mxCell id="178" value="&lt;font style=&quot;font-size: 15px;&quot;&gt;Rate user&lt;br&gt;&lt;/font&gt;" style="text;html=1;align=center;verticalAlign=middle;resizable=0;points=[];autosize=1;strokeColor=none;fillColor=none;rotation=0;fontSize=15;" parent="177" vertex="1">
                    <mxGeometry x="55" y="40" width="90" height="30" as="geometry"/>
                </mxCell>
                <mxCell id="180" value="19.0" style="swimlane;startSize=23;rounded=1;fontSize=15;" parent="1" vertex="1">
                    <mxGeometry x="400" y="1560" width="200" height="80" as="geometry"/>
                </mxCell>
                <mxCell id="181" value="&lt;font style=&quot;font-size: 15px;&quot;&gt;Rate property&lt;br&gt;&lt;/font&gt;" style="text;html=1;align=center;verticalAlign=middle;resizable=0;points=[];autosize=1;strokeColor=none;fillColor=none;rotation=0;fontSize=15;" parent="180" vertex="1">
                    <mxGeometry x="45" y="40" width="110" height="30" as="geometry"/>
                </mxCell>
                <mxCell id="196" value="20.0" style="swimlane;startSize=23;rounded=1;fontSize=15;" parent="1" vertex="1">
                    <mxGeometry x="400" y="1680" width="200" height="80" as="geometry"/>
                </mxCell>
                <mxCell id="197" value="&lt;font style=&quot;font-size: 15px;&quot;&gt;View announment&lt;br&gt;&lt;/font&gt;" style="text;html=1;align=center;verticalAlign=middle;resizable=0;points=[];autosize=1;strokeColor=none;fillColor=none;rotation=0;fontSize=15;" parent="196" vertex="1">
                    <mxGeometry x="30" y="40" width="140" height="30" as="geometry"/>
                </mxCell>
                <mxCell id="200" value="21.0" style="swimlane;startSize=23;rounded=1;fontSize=15;" parent="1" vertex="1">
                    <mxGeometry x="400" y="1800" width="200" height="80" as="geometry"/>
                </mxCell>
                <mxCell id="201" value="&lt;font style=&quot;font-size: 15px;&quot;&gt;Edit user profile&lt;br&gt;&lt;/font&gt;" style="text;html=1;align=center;verticalAlign=middle;resizable=0;points=[];autosize=1;strokeColor=none;fillColor=none;rotation=0;fontSize=15;" parent="200" vertex="1">
                    <mxGeometry x="35" y="40" width="130" height="30" as="geometry"/>
                </mxCell>
            </root>
        </mxGraphModel>
    </diagram>
</mxfile>